<mxfile host="app.diagrams.net" modified="2021-07-02T17:15:48.090Z" agent="5.0 (Windows NT 10.0; Win64; x64) AppleWebKit/537.36 (KHTML, like Gecko) Chrome/90.0.4430.212 Safari/537.36 OPR/76.0.4017.208" etag="g1hXDCbv0IXMz-3ydlIu" version="14.8.3" type="github">
  <diagram id="JB6615kzIFy8jRR4zf9I" name="Page-1">
    <mxGraphModel dx="789" dy="454" grid="1" gridSize="10" guides="1" tooltips="1" connect="1" arrows="1" fold="1" page="1" pageScale="1" pageWidth="850" pageHeight="1100" math="0" shadow="0">
      <root>
        <mxCell id="0" />
        <mxCell id="1" parent="0" />
        <mxCell id="i0beeNznbnjG34a0zRB_-2" value="Character" style="rounded=0;whiteSpace=wrap;html=1;" vertex="1" parent="1">
          <mxGeometry x="510" y="330" width="120" height="60" as="geometry" />
        </mxCell>
        <mxCell id="i0beeNznbnjG34a0zRB_-26" value="" style="group" vertex="1" connectable="0" parent="1">
          <mxGeometry x="70" y="140" width="510" height="160" as="geometry" />
        </mxCell>
        <mxCell id="i0beeNznbnjG34a0zRB_-18" value="" style="group" vertex="1" connectable="0" parent="i0beeNznbnjG34a0zRB_-26">
          <mxGeometry x="230" width="280" height="150" as="geometry" />
        </mxCell>
        <mxCell id="i0beeNznbnjG34a0zRB_-1" value="User" style="rounded=0;whiteSpace=wrap;html=1;" vertex="1" parent="i0beeNznbnjG34a0zRB_-18">
          <mxGeometry x="90" y="90" width="120" height="60" as="geometry" />
        </mxCell>
        <mxCell id="i0beeNznbnjG34a0zRB_-10" style="edgeStyle=none;rounded=0;orthogonalLoop=1;jettySize=auto;html=1;exitX=1;exitY=1;exitDx=0;exitDy=0;entryX=0;entryY=0;entryDx=0;entryDy=0;startArrow=none;startFill=0;endArrow=none;endFill=0;" edge="1" parent="i0beeNznbnjG34a0zRB_-18" source="i0beeNznbnjG34a0zRB_-4" target="i0beeNznbnjG34a0zRB_-1">
          <mxGeometry relative="1" as="geometry" />
        </mxCell>
        <mxCell id="i0beeNznbnjG34a0zRB_-4" value="Name" style="ellipse;whiteSpace=wrap;html=1;" vertex="1" parent="i0beeNznbnjG34a0zRB_-18">
          <mxGeometry x="30" y="20" width="50" height="40" as="geometry" />
        </mxCell>
        <mxCell id="i0beeNznbnjG34a0zRB_-9" style="edgeStyle=none;rounded=0;orthogonalLoop=1;jettySize=auto;html=1;exitX=0.5;exitY=1;exitDx=0;exitDy=0;entryX=0.5;entryY=0;entryDx=0;entryDy=0;startArrow=none;startFill=0;endArrow=none;endFill=0;" edge="1" parent="i0beeNznbnjG34a0zRB_-18" source="i0beeNznbnjG34a0zRB_-6" target="i0beeNznbnjG34a0zRB_-1">
          <mxGeometry relative="1" as="geometry" />
        </mxCell>
        <mxCell id="i0beeNznbnjG34a0zRB_-6" value="Email" style="ellipse;whiteSpace=wrap;html=1;" vertex="1" parent="i0beeNznbnjG34a0zRB_-18">
          <mxGeometry x="125" width="50" height="40" as="geometry" />
        </mxCell>
        <mxCell id="i0beeNznbnjG34a0zRB_-7" value="Password" style="ellipse;whiteSpace=wrap;html=1;" vertex="1" parent="i0beeNznbnjG34a0zRB_-18">
          <mxGeometry x="210" y="20" width="70" height="40" as="geometry" />
        </mxCell>
        <mxCell id="i0beeNznbnjG34a0zRB_-8" style="rounded=0;orthogonalLoop=1;jettySize=auto;html=1;exitX=1;exitY=0;exitDx=0;exitDy=0;startArrow=none;startFill=0;endArrow=none;endFill=0;" edge="1" parent="i0beeNznbnjG34a0zRB_-18" source="i0beeNznbnjG34a0zRB_-1" target="i0beeNznbnjG34a0zRB_-7">
          <mxGeometry relative="1" as="geometry" />
        </mxCell>
        <mxCell id="i0beeNznbnjG34a0zRB_-13" value="ID" style="ellipse;whiteSpace=wrap;html=1;" vertex="1" parent="i0beeNznbnjG34a0zRB_-18">
          <mxGeometry y="70" width="50" height="40" as="geometry" />
        </mxCell>
        <mxCell id="i0beeNznbnjG34a0zRB_-14" style="edgeStyle=none;rounded=0;orthogonalLoop=1;jettySize=auto;html=1;exitX=0;exitY=0.25;exitDx=0;exitDy=0;entryX=1;entryY=1;entryDx=0;entryDy=0;startArrow=none;startFill=0;endArrow=none;endFill=0;" edge="1" parent="i0beeNznbnjG34a0zRB_-18" source="i0beeNznbnjG34a0zRB_-1" target="i0beeNznbnjG34a0zRB_-13">
          <mxGeometry relative="1" as="geometry" />
        </mxCell>
        <mxCell id="i0beeNznbnjG34a0zRB_-19" value="" style="group" vertex="1" connectable="0" parent="i0beeNznbnjG34a0zRB_-26">
          <mxGeometry y="20" width="120" height="130" as="geometry" />
        </mxCell>
        <mxCell id="i0beeNznbnjG34a0zRB_-3" value="Roles" style="rounded=0;whiteSpace=wrap;html=1;" vertex="1" parent="i0beeNznbnjG34a0zRB_-19">
          <mxGeometry y="70" width="120" height="60" as="geometry" />
        </mxCell>
        <mxCell id="i0beeNznbnjG34a0zRB_-15" style="edgeStyle=none;rounded=0;orthogonalLoop=1;jettySize=auto;html=1;startArrow=none;startFill=0;endArrow=none;endFill=0;" edge="1" parent="i0beeNznbnjG34a0zRB_-19" source="i0beeNznbnjG34a0zRB_-11" target="i0beeNznbnjG34a0zRB_-3">
          <mxGeometry relative="1" as="geometry" />
        </mxCell>
        <mxCell id="i0beeNznbnjG34a0zRB_-11" value="Id" style="ellipse;whiteSpace=wrap;html=1;" vertex="1" parent="i0beeNznbnjG34a0zRB_-19">
          <mxGeometry width="50" height="40" as="geometry" />
        </mxCell>
        <mxCell id="i0beeNznbnjG34a0zRB_-16" style="edgeStyle=none;rounded=0;orthogonalLoop=1;jettySize=auto;html=1;startArrow=none;startFill=0;endArrow=none;endFill=0;" edge="1" parent="i0beeNznbnjG34a0zRB_-19" source="i0beeNznbnjG34a0zRB_-12" target="i0beeNznbnjG34a0zRB_-3">
          <mxGeometry relative="1" as="geometry" />
        </mxCell>
        <mxCell id="i0beeNznbnjG34a0zRB_-12" value="Name" style="ellipse;whiteSpace=wrap;html=1;" vertex="1" parent="i0beeNznbnjG34a0zRB_-19">
          <mxGeometry x="70" width="50" height="40" as="geometry" />
        </mxCell>
        <mxCell id="i0beeNznbnjG34a0zRB_-22" style="edgeStyle=orthogonalEdgeStyle;rounded=0;orthogonalLoop=1;jettySize=auto;html=1;startArrow=none;startFill=0;endArrow=none;endFill=0;" edge="1" parent="i0beeNznbnjG34a0zRB_-26" source="i0beeNznbnjG34a0zRB_-20" target="i0beeNznbnjG34a0zRB_-3">
          <mxGeometry relative="1" as="geometry" />
        </mxCell>
        <mxCell id="i0beeNznbnjG34a0zRB_-25" value="n" style="edgeLabel;html=1;align=center;verticalAlign=middle;resizable=0;points=[];" vertex="1" connectable="0" parent="i0beeNznbnjG34a0zRB_-22">
          <mxGeometry x="0.7" relative="1" as="geometry">
            <mxPoint as="offset" />
          </mxGeometry>
        </mxCell>
        <mxCell id="i0beeNznbnjG34a0zRB_-20" value="contains" style="rhombus;whiteSpace=wrap;html=1;" vertex="1" parent="i0beeNznbnjG34a0zRB_-26">
          <mxGeometry x="140" y="80" width="80" height="80" as="geometry" />
        </mxCell>
        <mxCell id="i0beeNznbnjG34a0zRB_-21" style="edgeStyle=orthogonalEdgeStyle;rounded=0;orthogonalLoop=1;jettySize=auto;html=1;entryX=1;entryY=0.5;entryDx=0;entryDy=0;startArrow=none;startFill=0;endArrow=none;endFill=0;" edge="1" parent="i0beeNznbnjG34a0zRB_-26" source="i0beeNznbnjG34a0zRB_-1" target="i0beeNznbnjG34a0zRB_-20">
          <mxGeometry relative="1" as="geometry" />
        </mxCell>
        <mxCell id="i0beeNznbnjG34a0zRB_-23" value="n" style="edgeLabel;html=1;align=center;verticalAlign=middle;resizable=0;points=[];" vertex="1" connectable="0" parent="i0beeNznbnjG34a0zRB_-21">
          <mxGeometry x="-0.8722" y="-1" relative="1" as="geometry">
            <mxPoint as="offset" />
          </mxGeometry>
        </mxCell>
      </root>
    </mxGraphModel>
  </diagram>
</mxfile>
